<svg width="34" height="42" viewBox="0 0 34 42" fill="none" xmlns="http://www.w3.org/2000/svg">
<path d="M14.3333 5.61906C9.53333 8.28573 4.6 11.3524 3.4 12.5524C0.2 15.2191 0.333333 19.8857 3.66667 22.8191L6.33333 25.2191L3.66667 28.1524C2.2 29.7524 1 32.1524 1 33.7524C1 36.9524 5 40.8191 8.33333 40.8191C11 40.8191 26.8667 32.5524 30.7333 29.0857C33.8 26.4191 33.6667 21.7524 30.3333 18.8191L27.6667 16.4191L30.3333 13.4857C33.6667 9.88573 33.8 5.88573 30.6 3.08573C27 -0.247608 24.0667 0.285726 14.3333 5.61906ZM18.3333 17.4857C20.6 18.6857 22.3333 20.1524 22.3333 20.8191C22.3333 21.8857 15.5333 26.1524 13.6667 26.1524C13.2667 26.1524 13 23.7524 13 20.8191C13 14.8191 13 14.6857 18.3333 17.4857Z" stroke="white"/>
</svg>
